%TF.GenerationSoftware,KiCad,Pcbnew,7.0.2*%
%TF.CreationDate,2023-05-25T16:14:32+02:00*%
%TF.ProjectId,kim-1-keypad,6b696d2d-312d-46b6-9579-7061642e6b69,rev?*%
%TF.SameCoordinates,Original*%
%TF.FileFunction,Legend,Top*%
%TF.FilePolarity,Positive*%
%FSLAX46Y46*%
G04 Gerber Fmt 4.6, Leading zero omitted, Abs format (unit mm)*
G04 Created by KiCad (PCBNEW 7.0.2) date 2023-05-25 16:14:32*
%MOMM*%
%LPD*%
G01*
G04 APERTURE LIST*
G04 Aperture macros list*
%AMRoundRect*
0 Rectangle with rounded corners*
0 $1 Rounding radius*
0 $2 $3 $4 $5 $6 $7 $8 $9 X,Y pos of 4 corners*
0 Add a 4 corners polygon primitive as box body*
4,1,4,$2,$3,$4,$5,$6,$7,$8,$9,$2,$3,0*
0 Add four circle primitives for the rounded corners*
1,1,$1+$1,$2,$3*
1,1,$1+$1,$4,$5*
1,1,$1+$1,$6,$7*
1,1,$1+$1,$8,$9*
0 Add four rect primitives between the rounded corners*
20,1,$1+$1,$2,$3,$4,$5,0*
20,1,$1+$1,$4,$5,$6,$7,0*
20,1,$1+$1,$6,$7,$8,$9,0*
20,1,$1+$1,$8,$9,$2,$3,0*%
G04 Aperture macros list end*
%ADD10C,0.350000*%
%ADD11C,0.120000*%
%ADD12C,0.127000*%
%ADD13C,1.500000*%
%ADD14C,1.500000*%
%ADD15C,2.500000*%
%ADD16R,1.400000X1.600000*%
%ADD17C,2.000000*%
%ADD18C,1.250000*%
%ADD19R,2.500000X1.000000*%
%ADD20RoundRect,0.765000X0.735000X0.085000X-0.735000X0.085000X-0.735000X-0.085000X0.735000X-0.085000X0*%
G04 APERTURE END LIST*
D10*
%TO.C,SW11*%
X119857738Y-103194762D02*
X119857738Y-104385238D01*
X119143452Y-102956667D02*
X121643452Y-103790000D01*
X121643452Y-103790000D02*
X119143452Y-104623333D01*
%TO.C,SW1*%
X97643452Y-79670952D02*
X97643452Y-79909047D01*
X97643452Y-79909047D02*
X97524404Y-80147143D01*
X97524404Y-80147143D02*
X97405357Y-80266190D01*
X97405357Y-80266190D02*
X97167261Y-80385238D01*
X97167261Y-80385238D02*
X96691071Y-80504285D01*
X96691071Y-80504285D02*
X96095833Y-80504285D01*
X96095833Y-80504285D02*
X95619642Y-80385238D01*
X95619642Y-80385238D02*
X95381547Y-80266190D01*
X95381547Y-80266190D02*
X95262500Y-80147143D01*
X95262500Y-80147143D02*
X95143452Y-79909047D01*
X95143452Y-79909047D02*
X95143452Y-79670952D01*
X95143452Y-79670952D02*
X95262500Y-79432857D01*
X95262500Y-79432857D02*
X95381547Y-79313809D01*
X95381547Y-79313809D02*
X95619642Y-79194762D01*
X95619642Y-79194762D02*
X96095833Y-79075714D01*
X96095833Y-79075714D02*
X96691071Y-79075714D01*
X96691071Y-79075714D02*
X97167261Y-79194762D01*
X97167261Y-79194762D02*
X97405357Y-79313809D01*
X97405357Y-79313809D02*
X97524404Y-79432857D01*
X97524404Y-79432857D02*
X97643452Y-79670952D01*
%TO.C,SW14*%
X131143452Y-91135238D02*
X133643452Y-91135238D01*
X133643452Y-91135238D02*
X133643452Y-91730476D01*
X133643452Y-91730476D02*
X133524404Y-92087619D01*
X133524404Y-92087619D02*
X133286309Y-92325714D01*
X133286309Y-92325714D02*
X133048214Y-92444761D01*
X133048214Y-92444761D02*
X132572023Y-92563809D01*
X132572023Y-92563809D02*
X132214880Y-92563809D01*
X132214880Y-92563809D02*
X131738690Y-92444761D01*
X131738690Y-92444761D02*
X131500595Y-92325714D01*
X131500595Y-92325714D02*
X131262500Y-92087619D01*
X131262500Y-92087619D02*
X131143452Y-91730476D01*
X131143452Y-91730476D02*
X131143452Y-91135238D01*
%TO.C,SW8*%
X109643452Y-114956666D02*
X109643452Y-116623333D01*
X109643452Y-116623333D02*
X107143452Y-115551904D01*
%TO.C,SW20*%
X157524404Y-91135237D02*
X157643452Y-90897142D01*
X157643452Y-90897142D02*
X157643452Y-90539999D01*
X157643452Y-90539999D02*
X157524404Y-90182856D01*
X157524404Y-90182856D02*
X157286309Y-89944761D01*
X157286309Y-89944761D02*
X157048214Y-89825714D01*
X157048214Y-89825714D02*
X156572023Y-89706666D01*
X156572023Y-89706666D02*
X156214880Y-89706666D01*
X156214880Y-89706666D02*
X155738690Y-89825714D01*
X155738690Y-89825714D02*
X155500595Y-89944761D01*
X155500595Y-89944761D02*
X155262500Y-90182856D01*
X155262500Y-90182856D02*
X155143452Y-90539999D01*
X155143452Y-90539999D02*
X155143452Y-90778095D01*
X155143452Y-90778095D02*
X155262500Y-91135237D01*
X155262500Y-91135237D02*
X155381547Y-91254285D01*
X155381547Y-91254285D02*
X156214880Y-91254285D01*
X156214880Y-91254285D02*
X156214880Y-90778095D01*
X157643452Y-92801904D02*
X157643452Y-93278095D01*
X157643452Y-93278095D02*
X157524404Y-93516190D01*
X157524404Y-93516190D02*
X157286309Y-93754285D01*
X157286309Y-93754285D02*
X156810119Y-93873333D01*
X156810119Y-93873333D02*
X155976785Y-93873333D01*
X155976785Y-93873333D02*
X155500595Y-93754285D01*
X155500595Y-93754285D02*
X155262500Y-93516190D01*
X155262500Y-93516190D02*
X155143452Y-93278095D01*
X155143452Y-93278095D02*
X155143452Y-92801904D01*
X155143452Y-92801904D02*
X155262500Y-92563809D01*
X155262500Y-92563809D02*
X155500595Y-92325714D01*
X155500595Y-92325714D02*
X155976785Y-92206666D01*
X155976785Y-92206666D02*
X156810119Y-92206666D01*
X156810119Y-92206666D02*
X157286309Y-92325714D01*
X157286309Y-92325714D02*
X157524404Y-92563809D01*
X157524404Y-92563809D02*
X157643452Y-92801904D01*
%TO.C,SW19*%
X144095833Y-114837619D02*
X144095833Y-116742381D01*
X143143452Y-115790000D02*
X145048214Y-115790000D01*
%TO.C,SW18*%
X143143452Y-90063810D02*
X145643452Y-90063810D01*
X145643452Y-90063810D02*
X145643452Y-90659048D01*
X145643452Y-90659048D02*
X145524404Y-91016191D01*
X145524404Y-91016191D02*
X145286309Y-91254286D01*
X145286309Y-91254286D02*
X145048214Y-91373333D01*
X145048214Y-91373333D02*
X144572023Y-91492381D01*
X144572023Y-91492381D02*
X144214880Y-91492381D01*
X144214880Y-91492381D02*
X143738690Y-91373333D01*
X143738690Y-91373333D02*
X143500595Y-91254286D01*
X143500595Y-91254286D02*
X143262500Y-91016191D01*
X143262500Y-91016191D02*
X143143452Y-90659048D01*
X143143452Y-90659048D02*
X143143452Y-90063810D01*
X143857738Y-92444762D02*
X143857738Y-93635238D01*
X143143452Y-92206667D02*
X145643452Y-93040000D01*
X145643452Y-93040000D02*
X143143452Y-93873333D01*
%TO.C,SW16*%
X132452976Y-116147143D02*
X132452976Y-115313810D01*
X131143452Y-115313810D02*
X133643452Y-115313810D01*
X133643452Y-115313810D02*
X133643452Y-116504286D01*
%TO.C,SW4*%
X97643452Y-114956666D02*
X97643452Y-116504285D01*
X97643452Y-116504285D02*
X96691071Y-115670952D01*
X96691071Y-115670952D02*
X96691071Y-116028095D01*
X96691071Y-116028095D02*
X96572023Y-116266190D01*
X96572023Y-116266190D02*
X96452976Y-116385238D01*
X96452976Y-116385238D02*
X96214880Y-116504285D01*
X96214880Y-116504285D02*
X95619642Y-116504285D01*
X95619642Y-116504285D02*
X95381547Y-116385238D01*
X95381547Y-116385238D02*
X95262500Y-116266190D01*
X95262500Y-116266190D02*
X95143452Y-116028095D01*
X95143452Y-116028095D02*
X95143452Y-115313809D01*
X95143452Y-115313809D02*
X95262500Y-115075714D01*
X95262500Y-115075714D02*
X95381547Y-114956666D01*
%TO.C,SW21*%
X143143452Y-101885238D02*
X145643452Y-101885238D01*
X145643452Y-101885238D02*
X145643452Y-102837619D01*
X145643452Y-102837619D02*
X145524404Y-103075714D01*
X145524404Y-103075714D02*
X145405357Y-103194761D01*
X145405357Y-103194761D02*
X145167261Y-103313809D01*
X145167261Y-103313809D02*
X144810119Y-103313809D01*
X144810119Y-103313809D02*
X144572023Y-103194761D01*
X144572023Y-103194761D02*
X144452976Y-103075714D01*
X144452976Y-103075714D02*
X144333928Y-102837619D01*
X144333928Y-102837619D02*
X144333928Y-101885238D01*
X143381547Y-105813809D02*
X143262500Y-105694761D01*
X143262500Y-105694761D02*
X143143452Y-105337619D01*
X143143452Y-105337619D02*
X143143452Y-105099523D01*
X143143452Y-105099523D02*
X143262500Y-104742380D01*
X143262500Y-104742380D02*
X143500595Y-104504285D01*
X143500595Y-104504285D02*
X143738690Y-104385238D01*
X143738690Y-104385238D02*
X144214880Y-104266190D01*
X144214880Y-104266190D02*
X144572023Y-104266190D01*
X144572023Y-104266190D02*
X145048214Y-104385238D01*
X145048214Y-104385238D02*
X145286309Y-104504285D01*
X145286309Y-104504285D02*
X145524404Y-104742380D01*
X145524404Y-104742380D02*
X145643452Y-105099523D01*
X145643452Y-105099523D02*
X145643452Y-105337619D01*
X145643452Y-105337619D02*
X145524404Y-105694761D01*
X145524404Y-105694761D02*
X145405357Y-105813809D01*
%TO.C,SW10*%
X119143452Y-91313809D02*
X119143452Y-91790000D01*
X119143452Y-91790000D02*
X119262500Y-92028095D01*
X119262500Y-92028095D02*
X119381547Y-92147143D01*
X119381547Y-92147143D02*
X119738690Y-92385238D01*
X119738690Y-92385238D02*
X120214880Y-92504285D01*
X120214880Y-92504285D02*
X121167261Y-92504285D01*
X121167261Y-92504285D02*
X121405357Y-92385238D01*
X121405357Y-92385238D02*
X121524404Y-92266190D01*
X121524404Y-92266190D02*
X121643452Y-92028095D01*
X121643452Y-92028095D02*
X121643452Y-91551904D01*
X121643452Y-91551904D02*
X121524404Y-91313809D01*
X121524404Y-91313809D02*
X121405357Y-91194762D01*
X121405357Y-91194762D02*
X121167261Y-91075714D01*
X121167261Y-91075714D02*
X120572023Y-91075714D01*
X120572023Y-91075714D02*
X120333928Y-91194762D01*
X120333928Y-91194762D02*
X120214880Y-91313809D01*
X120214880Y-91313809D02*
X120095833Y-91551904D01*
X120095833Y-91551904D02*
X120095833Y-92028095D01*
X120095833Y-92028095D02*
X120214880Y-92266190D01*
X120214880Y-92266190D02*
X120333928Y-92385238D01*
X120333928Y-92385238D02*
X120572023Y-92504285D01*
%TO.C,SW22*%
X155262500Y-102123333D02*
X155143452Y-102480476D01*
X155143452Y-102480476D02*
X155143452Y-103075714D01*
X155143452Y-103075714D02*
X155262500Y-103313809D01*
X155262500Y-103313809D02*
X155381547Y-103432857D01*
X155381547Y-103432857D02*
X155619642Y-103551904D01*
X155619642Y-103551904D02*
X155857738Y-103551904D01*
X155857738Y-103551904D02*
X156095833Y-103432857D01*
X156095833Y-103432857D02*
X156214880Y-103313809D01*
X156214880Y-103313809D02*
X156333928Y-103075714D01*
X156333928Y-103075714D02*
X156452976Y-102599523D01*
X156452976Y-102599523D02*
X156572023Y-102361428D01*
X156572023Y-102361428D02*
X156691071Y-102242381D01*
X156691071Y-102242381D02*
X156929166Y-102123333D01*
X156929166Y-102123333D02*
X157167261Y-102123333D01*
X157167261Y-102123333D02*
X157405357Y-102242381D01*
X157405357Y-102242381D02*
X157524404Y-102361428D01*
X157524404Y-102361428D02*
X157643452Y-102599523D01*
X157643452Y-102599523D02*
X157643452Y-103194762D01*
X157643452Y-103194762D02*
X157524404Y-103551904D01*
X157643452Y-104266190D02*
X157643452Y-105694761D01*
X155143452Y-104980475D02*
X157643452Y-104980475D01*
%TO.C,SW17*%
X143857738Y-77944762D02*
X143857738Y-79135238D01*
X143143452Y-77706667D02*
X145643452Y-78540000D01*
X145643452Y-78540000D02*
X143143452Y-79373333D01*
X143143452Y-80206667D02*
X145643452Y-80206667D01*
X145643452Y-80206667D02*
X145643452Y-80801905D01*
X145643452Y-80801905D02*
X145524404Y-81159048D01*
X145524404Y-81159048D02*
X145286309Y-81397143D01*
X145286309Y-81397143D02*
X145048214Y-81516190D01*
X145048214Y-81516190D02*
X144572023Y-81635238D01*
X144572023Y-81635238D02*
X144214880Y-81635238D01*
X144214880Y-81635238D02*
X143738690Y-81516190D01*
X143738690Y-81516190D02*
X143500595Y-81397143D01*
X143500595Y-81397143D02*
X143262500Y-81159048D01*
X143262500Y-81159048D02*
X143143452Y-80801905D01*
X143143452Y-80801905D02*
X143143452Y-80206667D01*
%TO.C,SW23*%
X155143452Y-115373333D02*
X156333928Y-114540000D01*
X155143452Y-113944762D02*
X157643452Y-113944762D01*
X157643452Y-113944762D02*
X157643452Y-114897143D01*
X157643452Y-114897143D02*
X157524404Y-115135238D01*
X157524404Y-115135238D02*
X157405357Y-115254285D01*
X157405357Y-115254285D02*
X157167261Y-115373333D01*
X157167261Y-115373333D02*
X156810119Y-115373333D01*
X156810119Y-115373333D02*
X156572023Y-115254285D01*
X156572023Y-115254285D02*
X156452976Y-115135238D01*
X156452976Y-115135238D02*
X156333928Y-114897143D01*
X156333928Y-114897143D02*
X156333928Y-113944762D01*
X155262500Y-116325714D02*
X155143452Y-116682857D01*
X155143452Y-116682857D02*
X155143452Y-117278095D01*
X155143452Y-117278095D02*
X155262500Y-117516190D01*
X155262500Y-117516190D02*
X155381547Y-117635238D01*
X155381547Y-117635238D02*
X155619642Y-117754285D01*
X155619642Y-117754285D02*
X155857738Y-117754285D01*
X155857738Y-117754285D02*
X156095833Y-117635238D01*
X156095833Y-117635238D02*
X156214880Y-117516190D01*
X156214880Y-117516190D02*
X156333928Y-117278095D01*
X156333928Y-117278095D02*
X156452976Y-116801904D01*
X156452976Y-116801904D02*
X156572023Y-116563809D01*
X156572023Y-116563809D02*
X156691071Y-116444762D01*
X156691071Y-116444762D02*
X156929166Y-116325714D01*
X156929166Y-116325714D02*
X157167261Y-116325714D01*
X157167261Y-116325714D02*
X157405357Y-116444762D01*
X157405357Y-116444762D02*
X157524404Y-116563809D01*
X157524404Y-116563809D02*
X157643452Y-116801904D01*
X157643452Y-116801904D02*
X157643452Y-117397143D01*
X157643452Y-117397143D02*
X157524404Y-117754285D01*
%TO.C,SW7*%
X109643452Y-104266190D02*
X109643452Y-103790000D01*
X109643452Y-103790000D02*
X109524404Y-103551904D01*
X109524404Y-103551904D02*
X109405357Y-103432857D01*
X109405357Y-103432857D02*
X109048214Y-103194762D01*
X109048214Y-103194762D02*
X108572023Y-103075714D01*
X108572023Y-103075714D02*
X107619642Y-103075714D01*
X107619642Y-103075714D02*
X107381547Y-103194762D01*
X107381547Y-103194762D02*
X107262500Y-103313809D01*
X107262500Y-103313809D02*
X107143452Y-103551904D01*
X107143452Y-103551904D02*
X107143452Y-104028095D01*
X107143452Y-104028095D02*
X107262500Y-104266190D01*
X107262500Y-104266190D02*
X107381547Y-104385238D01*
X107381547Y-104385238D02*
X107619642Y-104504285D01*
X107619642Y-104504285D02*
X108214880Y-104504285D01*
X108214880Y-104504285D02*
X108452976Y-104385238D01*
X108452976Y-104385238D02*
X108572023Y-104266190D01*
X108572023Y-104266190D02*
X108691071Y-104028095D01*
X108691071Y-104028095D02*
X108691071Y-103551904D01*
X108691071Y-103551904D02*
X108572023Y-103313809D01*
X108572023Y-103313809D02*
X108452976Y-103194762D01*
X108452976Y-103194762D02*
X108214880Y-103075714D01*
%TO.C,SW3*%
X97405357Y-103075714D02*
X97524404Y-103194762D01*
X97524404Y-103194762D02*
X97643452Y-103432857D01*
X97643452Y-103432857D02*
X97643452Y-104028095D01*
X97643452Y-104028095D02*
X97524404Y-104266190D01*
X97524404Y-104266190D02*
X97405357Y-104385238D01*
X97405357Y-104385238D02*
X97167261Y-104504285D01*
X97167261Y-104504285D02*
X96929166Y-104504285D01*
X96929166Y-104504285D02*
X96572023Y-104385238D01*
X96572023Y-104385238D02*
X95143452Y-102956666D01*
X95143452Y-102956666D02*
X95143452Y-104504285D01*
%TO.C,SW6*%
X109643452Y-92385238D02*
X109643452Y-91194762D01*
X109643452Y-91194762D02*
X108452976Y-91075714D01*
X108452976Y-91075714D02*
X108572023Y-91194762D01*
X108572023Y-91194762D02*
X108691071Y-91432857D01*
X108691071Y-91432857D02*
X108691071Y-92028095D01*
X108691071Y-92028095D02*
X108572023Y-92266190D01*
X108572023Y-92266190D02*
X108452976Y-92385238D01*
X108452976Y-92385238D02*
X108214880Y-92504285D01*
X108214880Y-92504285D02*
X107619642Y-92504285D01*
X107619642Y-92504285D02*
X107381547Y-92385238D01*
X107381547Y-92385238D02*
X107262500Y-92266190D01*
X107262500Y-92266190D02*
X107143452Y-92028095D01*
X107143452Y-92028095D02*
X107143452Y-91432857D01*
X107143452Y-91432857D02*
X107262500Y-91194762D01*
X107262500Y-91194762D02*
X107381547Y-91075714D01*
%TO.C,SW13*%
X131381547Y-80563809D02*
X131262500Y-80444761D01*
X131262500Y-80444761D02*
X131143452Y-80087619D01*
X131143452Y-80087619D02*
X131143452Y-79849523D01*
X131143452Y-79849523D02*
X131262500Y-79492380D01*
X131262500Y-79492380D02*
X131500595Y-79254285D01*
X131500595Y-79254285D02*
X131738690Y-79135238D01*
X131738690Y-79135238D02*
X132214880Y-79016190D01*
X132214880Y-79016190D02*
X132572023Y-79016190D01*
X132572023Y-79016190D02*
X133048214Y-79135238D01*
X133048214Y-79135238D02*
X133286309Y-79254285D01*
X133286309Y-79254285D02*
X133524404Y-79492380D01*
X133524404Y-79492380D02*
X133643452Y-79849523D01*
X133643452Y-79849523D02*
X133643452Y-80087619D01*
X133643452Y-80087619D02*
X133524404Y-80444761D01*
X133524404Y-80444761D02*
X133405357Y-80563809D01*
%TO.C,SW15*%
X132452976Y-103254286D02*
X132452976Y-104087619D01*
X131143452Y-104444762D02*
X131143452Y-103254286D01*
X131143452Y-103254286D02*
X133643452Y-103254286D01*
X133643452Y-103254286D02*
X133643452Y-104444762D01*
%TO.C,SW2*%
X95143452Y-92504285D02*
X95143452Y-91075714D01*
X95143452Y-91790000D02*
X97643452Y-91790000D01*
X97643452Y-91790000D02*
X97286309Y-91551904D01*
X97286309Y-91551904D02*
X97048214Y-91313809D01*
X97048214Y-91313809D02*
X96929166Y-91075714D01*
%TO.C,SW5*%
X108810119Y-80266190D02*
X107143452Y-80266190D01*
X109762500Y-79670952D02*
X107976785Y-79075714D01*
X107976785Y-79075714D02*
X107976785Y-80623333D01*
%TO.C,SW12*%
X120452976Y-115968571D02*
X120333928Y-116325714D01*
X120333928Y-116325714D02*
X120214880Y-116444761D01*
X120214880Y-116444761D02*
X119976785Y-116563809D01*
X119976785Y-116563809D02*
X119619642Y-116563809D01*
X119619642Y-116563809D02*
X119381547Y-116444761D01*
X119381547Y-116444761D02*
X119262500Y-116325714D01*
X119262500Y-116325714D02*
X119143452Y-116087619D01*
X119143452Y-116087619D02*
X119143452Y-115135238D01*
X119143452Y-115135238D02*
X121643452Y-115135238D01*
X121643452Y-115135238D02*
X121643452Y-115968571D01*
X121643452Y-115968571D02*
X121524404Y-116206666D01*
X121524404Y-116206666D02*
X121405357Y-116325714D01*
X121405357Y-116325714D02*
X121167261Y-116444761D01*
X121167261Y-116444761D02*
X120929166Y-116444761D01*
X120929166Y-116444761D02*
X120691071Y-116325714D01*
X120691071Y-116325714D02*
X120572023Y-116206666D01*
X120572023Y-116206666D02*
X120452976Y-115968571D01*
X120452976Y-115968571D02*
X120452976Y-115135238D01*
%TO.C,SW9*%
X120572023Y-79551904D02*
X120691071Y-79313809D01*
X120691071Y-79313809D02*
X120810119Y-79194762D01*
X120810119Y-79194762D02*
X121048214Y-79075714D01*
X121048214Y-79075714D02*
X121167261Y-79075714D01*
X121167261Y-79075714D02*
X121405357Y-79194762D01*
X121405357Y-79194762D02*
X121524404Y-79313809D01*
X121524404Y-79313809D02*
X121643452Y-79551904D01*
X121643452Y-79551904D02*
X121643452Y-80028095D01*
X121643452Y-80028095D02*
X121524404Y-80266190D01*
X121524404Y-80266190D02*
X121405357Y-80385238D01*
X121405357Y-80385238D02*
X121167261Y-80504285D01*
X121167261Y-80504285D02*
X121048214Y-80504285D01*
X121048214Y-80504285D02*
X120810119Y-80385238D01*
X120810119Y-80385238D02*
X120691071Y-80266190D01*
X120691071Y-80266190D02*
X120572023Y-80028095D01*
X120572023Y-80028095D02*
X120572023Y-79551904D01*
X120572023Y-79551904D02*
X120452976Y-79313809D01*
X120452976Y-79313809D02*
X120333928Y-79194762D01*
X120333928Y-79194762D02*
X120095833Y-79075714D01*
X120095833Y-79075714D02*
X119619642Y-79075714D01*
X119619642Y-79075714D02*
X119381547Y-79194762D01*
X119381547Y-79194762D02*
X119262500Y-79313809D01*
X119262500Y-79313809D02*
X119143452Y-79551904D01*
X119143452Y-79551904D02*
X119143452Y-80028095D01*
X119143452Y-80028095D02*
X119262500Y-80266190D01*
X119262500Y-80266190D02*
X119381547Y-80385238D01*
X119381547Y-80385238D02*
X119619642Y-80504285D01*
X119619642Y-80504285D02*
X120095833Y-80504285D01*
X120095833Y-80504285D02*
X120333928Y-80385238D01*
X120333928Y-80385238D02*
X120452976Y-80266190D01*
X120452976Y-80266190D02*
X120572023Y-80028095D01*
%TO.C,SW24*%
X156320000Y-74964285D02*
X156224761Y-75249999D01*
X156224761Y-75249999D02*
X156224761Y-75726190D01*
X156224761Y-75726190D02*
X156320000Y-75916666D01*
X156320000Y-75916666D02*
X156415238Y-76011904D01*
X156415238Y-76011904D02*
X156605714Y-76107142D01*
X156605714Y-76107142D02*
X156796190Y-76107142D01*
X156796190Y-76107142D02*
X156986666Y-76011904D01*
X156986666Y-76011904D02*
X157081904Y-75916666D01*
X157081904Y-75916666D02*
X157177142Y-75726190D01*
X157177142Y-75726190D02*
X157272380Y-75345237D01*
X157272380Y-75345237D02*
X157367619Y-75154761D01*
X157367619Y-75154761D02*
X157462857Y-75059523D01*
X157462857Y-75059523D02*
X157653333Y-74964285D01*
X157653333Y-74964285D02*
X157843809Y-74964285D01*
X157843809Y-74964285D02*
X158034285Y-75059523D01*
X158034285Y-75059523D02*
X158129523Y-75154761D01*
X158129523Y-75154761D02*
X158224761Y-75345237D01*
X158224761Y-75345237D02*
X158224761Y-75821428D01*
X158224761Y-75821428D02*
X158129523Y-76107142D01*
X156320000Y-76869047D02*
X156224761Y-77154761D01*
X156224761Y-77154761D02*
X156224761Y-77630952D01*
X156224761Y-77630952D02*
X156320000Y-77821428D01*
X156320000Y-77821428D02*
X156415238Y-77916666D01*
X156415238Y-77916666D02*
X156605714Y-78011904D01*
X156605714Y-78011904D02*
X156796190Y-78011904D01*
X156796190Y-78011904D02*
X156986666Y-77916666D01*
X156986666Y-77916666D02*
X157081904Y-77821428D01*
X157081904Y-77821428D02*
X157177142Y-77630952D01*
X157177142Y-77630952D02*
X157272380Y-77249999D01*
X157272380Y-77249999D02*
X157367619Y-77059523D01*
X157367619Y-77059523D02*
X157462857Y-76964285D01*
X157462857Y-76964285D02*
X157653333Y-76869047D01*
X157653333Y-76869047D02*
X157843809Y-76869047D01*
X157843809Y-76869047D02*
X158034285Y-76964285D01*
X158034285Y-76964285D02*
X158129523Y-77059523D01*
X158129523Y-77059523D02*
X158224761Y-77249999D01*
X158224761Y-77249999D02*
X158224761Y-77726190D01*
X158224761Y-77726190D02*
X158129523Y-78011904D01*
X158224761Y-78583333D02*
X158224761Y-79726190D01*
X156224761Y-79154761D02*
X158224761Y-79154761D01*
D11*
%TO.C,SW11*%
X127580000Y-101420000D02*
X127180000Y-101420000D01*
X127580000Y-101420000D02*
X127580000Y-106160000D01*
X124180000Y-101420000D02*
X126240000Y-101420000D01*
X122840000Y-101420000D02*
X123240000Y-101420000D01*
X122840000Y-101420000D02*
X122840000Y-106160000D01*
X127580000Y-106160000D02*
X127180000Y-106160000D01*
X124180000Y-106160000D02*
X126240000Y-106160000D01*
X122840000Y-106160000D02*
X123240000Y-106160000D01*
%TO.C,SW1*%
X103580000Y-77420000D02*
X103180000Y-77420000D01*
X103580000Y-77420000D02*
X103580000Y-82160000D01*
X100180000Y-77420000D02*
X102240000Y-77420000D01*
X98840000Y-77420000D02*
X99240000Y-77420000D01*
X98840000Y-77420000D02*
X98840000Y-82160000D01*
X103580000Y-82160000D02*
X103180000Y-82160000D01*
X100180000Y-82160000D02*
X102240000Y-82160000D01*
X98840000Y-82160000D02*
X99240000Y-82160000D01*
%TO.C,SW14*%
X139580000Y-89420000D02*
X139180000Y-89420000D01*
X139580000Y-89420000D02*
X139580000Y-94160000D01*
X136180000Y-89420000D02*
X138240000Y-89420000D01*
X134840000Y-89420000D02*
X135240000Y-89420000D01*
X134840000Y-89420000D02*
X134840000Y-94160000D01*
X139580000Y-94160000D02*
X139180000Y-94160000D01*
X136180000Y-94160000D02*
X138240000Y-94160000D01*
X134840000Y-94160000D02*
X135240000Y-94160000D01*
%TO.C,SW8*%
X115580000Y-113420000D02*
X115180000Y-113420000D01*
X115580000Y-113420000D02*
X115580000Y-118160000D01*
X112180000Y-113420000D02*
X114240000Y-113420000D01*
X110840000Y-113420000D02*
X111240000Y-113420000D01*
X110840000Y-113420000D02*
X110840000Y-118160000D01*
X115580000Y-118160000D02*
X115180000Y-118160000D01*
X112180000Y-118160000D02*
X114240000Y-118160000D01*
X110840000Y-118160000D02*
X111240000Y-118160000D01*
%TO.C,SW20*%
X163580000Y-89420000D02*
X163180000Y-89420000D01*
X163580000Y-89420000D02*
X163580000Y-94160000D01*
X160180000Y-89420000D02*
X162240000Y-89420000D01*
X158840000Y-89420000D02*
X159240000Y-89420000D01*
X158840000Y-89420000D02*
X158840000Y-94160000D01*
X163580000Y-94160000D02*
X163180000Y-94160000D01*
X160180000Y-94160000D02*
X162240000Y-94160000D01*
X158840000Y-94160000D02*
X159240000Y-94160000D01*
%TO.C,SW19*%
X151580000Y-113420000D02*
X151180000Y-113420000D01*
X151580000Y-113420000D02*
X151580000Y-118160000D01*
X148180000Y-113420000D02*
X150240000Y-113420000D01*
X146840000Y-113420000D02*
X147240000Y-113420000D01*
X146840000Y-113420000D02*
X146840000Y-118160000D01*
X151580000Y-118160000D02*
X151180000Y-118160000D01*
X148180000Y-118160000D02*
X150240000Y-118160000D01*
X146840000Y-118160000D02*
X147240000Y-118160000D01*
%TO.C,SW18*%
X151580000Y-89420000D02*
X151180000Y-89420000D01*
X151580000Y-89420000D02*
X151580000Y-94160000D01*
X148180000Y-89420000D02*
X150240000Y-89420000D01*
X146840000Y-89420000D02*
X147240000Y-89420000D01*
X146840000Y-89420000D02*
X146840000Y-94160000D01*
X151580000Y-94160000D02*
X151180000Y-94160000D01*
X148180000Y-94160000D02*
X150240000Y-94160000D01*
X146840000Y-94160000D02*
X147240000Y-94160000D01*
%TO.C,SW16*%
X139580000Y-113420000D02*
X139180000Y-113420000D01*
X139580000Y-113420000D02*
X139580000Y-118160000D01*
X136180000Y-113420000D02*
X138240000Y-113420000D01*
X134840000Y-113420000D02*
X135240000Y-113420000D01*
X134840000Y-113420000D02*
X134840000Y-118160000D01*
X139580000Y-118160000D02*
X139180000Y-118160000D01*
X136180000Y-118160000D02*
X138240000Y-118160000D01*
X134840000Y-118160000D02*
X135240000Y-118160000D01*
%TO.C,SW4*%
X103580000Y-113420000D02*
X103180000Y-113420000D01*
X103580000Y-113420000D02*
X103580000Y-118160000D01*
X100180000Y-113420000D02*
X102240000Y-113420000D01*
X98840000Y-113420000D02*
X99240000Y-113420000D01*
X98840000Y-113420000D02*
X98840000Y-118160000D01*
X103580000Y-118160000D02*
X103180000Y-118160000D01*
X100180000Y-118160000D02*
X102240000Y-118160000D01*
X98840000Y-118160000D02*
X99240000Y-118160000D01*
%TO.C,SW21*%
X151580000Y-101420000D02*
X151180000Y-101420000D01*
X151580000Y-101420000D02*
X151580000Y-106160000D01*
X148180000Y-101420000D02*
X150240000Y-101420000D01*
X146840000Y-101420000D02*
X147240000Y-101420000D01*
X146840000Y-101420000D02*
X146840000Y-106160000D01*
X151580000Y-106160000D02*
X151180000Y-106160000D01*
X148180000Y-106160000D02*
X150240000Y-106160000D01*
X146840000Y-106160000D02*
X147240000Y-106160000D01*
%TO.C,SW10*%
X127580000Y-89420000D02*
X127180000Y-89420000D01*
X127580000Y-89420000D02*
X127580000Y-94160000D01*
X124180000Y-89420000D02*
X126240000Y-89420000D01*
X122840000Y-89420000D02*
X123240000Y-89420000D01*
X122840000Y-89420000D02*
X122840000Y-94160000D01*
X127580000Y-94160000D02*
X127180000Y-94160000D01*
X124180000Y-94160000D02*
X126240000Y-94160000D01*
X122840000Y-94160000D02*
X123240000Y-94160000D01*
%TO.C,SW22*%
X163580000Y-101420000D02*
X163180000Y-101420000D01*
X163580000Y-101420000D02*
X163580000Y-106160000D01*
X160180000Y-101420000D02*
X162240000Y-101420000D01*
X158840000Y-101420000D02*
X159240000Y-101420000D01*
X158840000Y-101420000D02*
X158840000Y-106160000D01*
X163580000Y-106160000D02*
X163180000Y-106160000D01*
X160180000Y-106160000D02*
X162240000Y-106160000D01*
X158840000Y-106160000D02*
X159240000Y-106160000D01*
%TO.C,SW17*%
X151580000Y-77420000D02*
X151180000Y-77420000D01*
X151580000Y-77420000D02*
X151580000Y-82160000D01*
X148180000Y-77420000D02*
X150240000Y-77420000D01*
X146840000Y-77420000D02*
X147240000Y-77420000D01*
X146840000Y-77420000D02*
X146840000Y-82160000D01*
X151580000Y-82160000D02*
X151180000Y-82160000D01*
X148180000Y-82160000D02*
X150240000Y-82160000D01*
X146840000Y-82160000D02*
X147240000Y-82160000D01*
%TO.C,SW23*%
X163580000Y-113420000D02*
X163180000Y-113420000D01*
X163580000Y-113420000D02*
X163580000Y-118160000D01*
X160180000Y-113420000D02*
X162240000Y-113420000D01*
X158840000Y-113420000D02*
X159240000Y-113420000D01*
X158840000Y-113420000D02*
X158840000Y-118160000D01*
X163580000Y-118160000D02*
X163180000Y-118160000D01*
X160180000Y-118160000D02*
X162240000Y-118160000D01*
X158840000Y-118160000D02*
X159240000Y-118160000D01*
%TO.C,SW7*%
X115580000Y-101420000D02*
X115180000Y-101420000D01*
X115580000Y-101420000D02*
X115580000Y-106160000D01*
X112180000Y-101420000D02*
X114240000Y-101420000D01*
X110840000Y-101420000D02*
X111240000Y-101420000D01*
X110840000Y-101420000D02*
X110840000Y-106160000D01*
X115580000Y-106160000D02*
X115180000Y-106160000D01*
X112180000Y-106160000D02*
X114240000Y-106160000D01*
X110840000Y-106160000D02*
X111240000Y-106160000D01*
%TO.C,SW3*%
X103580000Y-101420000D02*
X103180000Y-101420000D01*
X103580000Y-101420000D02*
X103580000Y-106160000D01*
X100180000Y-101420000D02*
X102240000Y-101420000D01*
X98840000Y-101420000D02*
X99240000Y-101420000D01*
X98840000Y-101420000D02*
X98840000Y-106160000D01*
X103580000Y-106160000D02*
X103180000Y-106160000D01*
X100180000Y-106160000D02*
X102240000Y-106160000D01*
X98840000Y-106160000D02*
X99240000Y-106160000D01*
%TO.C,SW6*%
X115580000Y-89420000D02*
X115180000Y-89420000D01*
X115580000Y-89420000D02*
X115580000Y-94160000D01*
X112180000Y-89420000D02*
X114240000Y-89420000D01*
X110840000Y-89420000D02*
X111240000Y-89420000D01*
X110840000Y-89420000D02*
X110840000Y-94160000D01*
X115580000Y-94160000D02*
X115180000Y-94160000D01*
X112180000Y-94160000D02*
X114240000Y-94160000D01*
X110840000Y-94160000D02*
X111240000Y-94160000D01*
%TO.C,SW13*%
X139580000Y-77420000D02*
X139180000Y-77420000D01*
X139580000Y-77420000D02*
X139580000Y-82160000D01*
X136180000Y-77420000D02*
X138240000Y-77420000D01*
X134840000Y-77420000D02*
X135240000Y-77420000D01*
X134840000Y-77420000D02*
X134840000Y-82160000D01*
X139580000Y-82160000D02*
X139180000Y-82160000D01*
X136180000Y-82160000D02*
X138240000Y-82160000D01*
X134840000Y-82160000D02*
X135240000Y-82160000D01*
%TO.C,SW15*%
X139580000Y-101420000D02*
X139180000Y-101420000D01*
X139580000Y-101420000D02*
X139580000Y-106160000D01*
X136180000Y-101420000D02*
X138240000Y-101420000D01*
X134840000Y-101420000D02*
X135240000Y-101420000D01*
X134840000Y-101420000D02*
X134840000Y-106160000D01*
X139580000Y-106160000D02*
X139180000Y-106160000D01*
X136180000Y-106160000D02*
X138240000Y-106160000D01*
X134840000Y-106160000D02*
X135240000Y-106160000D01*
%TO.C,SW2*%
X103580000Y-89420000D02*
X103180000Y-89420000D01*
X103580000Y-89420000D02*
X103580000Y-94160000D01*
X100180000Y-89420000D02*
X102240000Y-89420000D01*
X98840000Y-89420000D02*
X99240000Y-89420000D01*
X98840000Y-89420000D02*
X98840000Y-94160000D01*
X103580000Y-94160000D02*
X103180000Y-94160000D01*
X100180000Y-94160000D02*
X102240000Y-94160000D01*
X98840000Y-94160000D02*
X99240000Y-94160000D01*
%TO.C,SW5*%
X115580000Y-77420000D02*
X115180000Y-77420000D01*
X115580000Y-77420000D02*
X115580000Y-82160000D01*
X112180000Y-77420000D02*
X114240000Y-77420000D01*
X110840000Y-77420000D02*
X111240000Y-77420000D01*
X110840000Y-77420000D02*
X110840000Y-82160000D01*
X115580000Y-82160000D02*
X115180000Y-82160000D01*
X112180000Y-82160000D02*
X114240000Y-82160000D01*
X110840000Y-82160000D02*
X111240000Y-82160000D01*
%TO.C,SW12*%
X127580000Y-113420000D02*
X127180000Y-113420000D01*
X127580000Y-113420000D02*
X127580000Y-118160000D01*
X124180000Y-113420000D02*
X126240000Y-113420000D01*
X122840000Y-113420000D02*
X123240000Y-113420000D01*
X122840000Y-113420000D02*
X122840000Y-118160000D01*
X127580000Y-118160000D02*
X127180000Y-118160000D01*
X124180000Y-118160000D02*
X126240000Y-118160000D01*
X122840000Y-118160000D02*
X123240000Y-118160000D01*
%TO.C,SW9*%
X127580000Y-77420000D02*
X127180000Y-77420000D01*
X127580000Y-77420000D02*
X127580000Y-82160000D01*
X124180000Y-77420000D02*
X126240000Y-77420000D01*
X122840000Y-77420000D02*
X123240000Y-77420000D01*
X122840000Y-77420000D02*
X122840000Y-82160000D01*
X127580000Y-82160000D02*
X127180000Y-82160000D01*
X124180000Y-82160000D02*
X126240000Y-82160000D01*
X122840000Y-82160000D02*
X123240000Y-82160000D01*
D12*
%TO.C,SW24*%
X159320000Y-84210000D02*
X159320000Y-80440000D01*
X163060000Y-84210000D02*
X159320000Y-84210000D01*
X163060000Y-82940000D02*
X163060000Y-84210000D01*
X163060000Y-81740000D02*
X163060000Y-77940000D01*
X159320000Y-79240000D02*
X159320000Y-75470000D01*
X159320000Y-75470000D02*
X163060000Y-75470000D01*
X163060000Y-75470000D02*
X163060000Y-76740000D01*
%TD*%
%LPC*%
G36*
X92120000Y-73050000D02*
G01*
X94610000Y-73050000D01*
X94610000Y-122460000D01*
X92120000Y-122460000D01*
X92120000Y-73050000D01*
G37*
G36*
X167570000Y-73050000D02*
G01*
X182580000Y-73050000D01*
X182580000Y-122390000D01*
X167570000Y-122390000D01*
X167570000Y-73050000D01*
G37*
%TO.C,J1*%
G36*
X176700000Y-80080000D02*
G01*
X179700000Y-80080000D01*
X179700000Y-115640000D01*
X176700000Y-115640000D01*
X176700000Y-80080000D01*
G37*
D13*
X178950000Y-115640000D02*
G75*
G03*
X178950000Y-115640000I-750000J0D01*
G01*
X178950000Y-80080000D02*
G75*
G03*
X178950000Y-80080000I-750000J0D01*
G01*
%TD*%
D14*
%TO.C,H14*%
X173870000Y-117370000D03*
%TD*%
D15*
%TO.C,H6*%
X143200000Y-75360000D03*
%TD*%
D16*
%TO.C,SW11*%
X126710000Y-100190000D03*
X126710000Y-107390000D03*
X123710000Y-100190000D03*
X123710000Y-107390000D03*
%TD*%
D17*
%TO.C,H10*%
X155200000Y-109860000D03*
%TD*%
D16*
%TO.C,SW1*%
X102710000Y-76190000D03*
X102710000Y-83390000D03*
X99710000Y-76190000D03*
X99710000Y-83390000D03*
%TD*%
%TO.C,SW14*%
X138710000Y-88190000D03*
X138710000Y-95390000D03*
X135710000Y-88190000D03*
X135710000Y-95390000D03*
%TD*%
D15*
%TO.C,H8*%
X166200000Y-85860000D03*
%TD*%
D17*
%TO.C,H9*%
X107200000Y-85860000D03*
%TD*%
D16*
%TO.C,SW8*%
X114710000Y-112190000D03*
X114710000Y-119390000D03*
X111710000Y-112190000D03*
X111710000Y-119390000D03*
%TD*%
%TO.C,SW20*%
X162710000Y-88190000D03*
X162710000Y-95390000D03*
X159710000Y-88190000D03*
X159710000Y-95390000D03*
%TD*%
D15*
%TO.C,H7*%
X143200000Y-120360000D03*
%TD*%
D16*
%TO.C,SW19*%
X150710000Y-112190000D03*
X150710000Y-119390000D03*
X147710000Y-112190000D03*
X147710000Y-119390000D03*
%TD*%
D14*
%TO.C,H11*%
X173040000Y-78540000D03*
%TD*%
D16*
%TO.C,SW18*%
X150710000Y-88190000D03*
X150710000Y-95390000D03*
X147710000Y-88190000D03*
X147710000Y-95390000D03*
%TD*%
%TO.C,SW16*%
X138710000Y-112190000D03*
X138710000Y-119390000D03*
X135710000Y-112190000D03*
X135710000Y-119390000D03*
%TD*%
D15*
%TO.C,H9*%
X166200000Y-109860000D03*
%TD*%
D14*
%TO.C,H13*%
X174850000Y-111470000D03*
%TD*%
D16*
%TO.C,SW4*%
X102710000Y-112190000D03*
X102710000Y-119390000D03*
X99710000Y-112190000D03*
X99710000Y-119390000D03*
%TD*%
%TO.C,SW21*%
X150710000Y-100190000D03*
X150710000Y-107390000D03*
X147710000Y-100190000D03*
X147710000Y-107390000D03*
%TD*%
D15*
%TO.C,H5*%
X131200000Y-97860000D03*
%TD*%
%TO.C,H1*%
X96200000Y-85860000D03*
%TD*%
%TO.C,H4*%
X119200000Y-120360000D03*
%TD*%
D16*
%TO.C,SW10*%
X126710000Y-88190000D03*
X126710000Y-95390000D03*
X123710000Y-88190000D03*
X123710000Y-95390000D03*
%TD*%
%TO.C,SW22*%
X162710000Y-100190000D03*
X162710000Y-107390000D03*
X159710000Y-100190000D03*
X159710000Y-107390000D03*
%TD*%
%TO.C,SW17*%
X150710000Y-76190000D03*
X150710000Y-83390000D03*
X147710000Y-76190000D03*
X147710000Y-83390000D03*
%TD*%
%TO.C,SW23*%
X162710000Y-112190000D03*
X162710000Y-119390000D03*
X159710000Y-112190000D03*
X159710000Y-119390000D03*
%TD*%
%TO.C,SW7*%
X114710000Y-100190000D03*
X114710000Y-107390000D03*
X111710000Y-100190000D03*
X111710000Y-107390000D03*
%TD*%
%TO.C,SW3*%
X102710000Y-100190000D03*
X102710000Y-107390000D03*
X99710000Y-100190000D03*
X99710000Y-107390000D03*
%TD*%
%TO.C,SW6*%
X114710000Y-88190000D03*
X114710000Y-95390000D03*
X111710000Y-88190000D03*
X111710000Y-95390000D03*
%TD*%
D18*
%TO.C,H11*%
X177140000Y-75140000D03*
%TD*%
D16*
%TO.C,SW13*%
X138710000Y-76190000D03*
X138710000Y-83390000D03*
X135710000Y-76190000D03*
X135710000Y-83390000D03*
%TD*%
D15*
%TO.C,H3*%
X119200000Y-75360000D03*
%TD*%
D16*
%TO.C,SW15*%
X138710000Y-100190000D03*
X138710000Y-107390000D03*
X135710000Y-100190000D03*
X135710000Y-107390000D03*
%TD*%
%TO.C,SW2*%
X102710000Y-88190000D03*
X102710000Y-95390000D03*
X99710000Y-88190000D03*
X99710000Y-95390000D03*
%TD*%
%TO.C,SW5*%
X114710000Y-76190000D03*
X114710000Y-83390000D03*
X111710000Y-76190000D03*
X111710000Y-83390000D03*
%TD*%
%TO.C,SW12*%
X126710000Y-112190000D03*
X126710000Y-119390000D03*
X123710000Y-112190000D03*
X123710000Y-119390000D03*
%TD*%
D14*
%TO.C,H12*%
X173910000Y-95620000D03*
%TD*%
D15*
%TO.C,H2*%
X96200000Y-109860000D03*
%TD*%
D16*
%TO.C,SW9*%
X126710000Y-76190000D03*
X126710000Y-83390000D03*
X123710000Y-76190000D03*
X123710000Y-83390000D03*
%TD*%
D19*
%TO.C,SW24*%
X163940000Y-82340000D03*
X158440000Y-79840000D03*
X163940000Y-77340000D03*
%TD*%
D20*
%TO.C,J1*%
X178200000Y-80080000D03*
X178200000Y-82620000D03*
X178200000Y-85160000D03*
X178200000Y-87700000D03*
X178200000Y-90240000D03*
X178200000Y-92780000D03*
X178200000Y-95320000D03*
X178200000Y-97860000D03*
X178200000Y-100400000D03*
X178200000Y-102940000D03*
X178200000Y-105480000D03*
X178200000Y-108020000D03*
X178200000Y-110560000D03*
X178200000Y-113100000D03*
X178200000Y-115640000D03*
%TD*%
%LPD*%
M02*
