%TF.GenerationSoftware,KiCad,Pcbnew,7.0.2*%
%TF.CreationDate,2023-06-05T19:47:35+02:00*%
%TF.ProjectId,kim-1-keypad,6b696d2d-312d-46b6-9579-7061642e6b69,rev?*%
%TF.SameCoordinates,Original*%
%TF.FileFunction,Soldermask,Top*%
%TF.FilePolarity,Negative*%
%FSLAX46Y46*%
G04 Gerber Fmt 4.6, Leading zero omitted, Abs format (unit mm)*
G04 Created by KiCad (PCBNEW 7.0.2) date 2023-06-05 19:47:35*
%MOMM*%
%LPD*%
G01*
G04 APERTURE LIST*
G04 Aperture macros list*
%AMRoundRect*
0 Rectangle with rounded corners*
0 $1 Rounding radius*
0 $2 $3 $4 $5 $6 $7 $8 $9 X,Y pos of 4 corners*
0 Add a 4 corners polygon primitive as box body*
4,1,4,$2,$3,$4,$5,$6,$7,$8,$9,$2,$3,0*
0 Add four circle primitives for the rounded corners*
1,1,$1+$1,$2,$3*
1,1,$1+$1,$4,$5*
1,1,$1+$1,$6,$7*
1,1,$1+$1,$8,$9*
0 Add four rect primitives between the rounded corners*
20,1,$1+$1,$2,$3,$4,$5,0*
20,1,$1+$1,$4,$5,$6,$7,0*
20,1,$1+$1,$6,$7,$8,$9,0*
20,1,$1+$1,$8,$9,$2,$3,0*%
G04 Aperture macros list end*
%ADD10C,1.500000*%
%ADD11C,1.500000*%
%ADD12C,2.500000*%
%ADD13R,1.400000X1.600000*%
%ADD14C,2.000000*%
%ADD15C,1.250000*%
%ADD16C,1.000000*%
%ADD17RoundRect,0.765000X-0.735000X-0.085000X0.735000X-0.085000X0.735000X0.085000X-0.735000X0.085000X0*%
%ADD18R,2.500000X1.000000*%
G04 APERTURE END LIST*
G36*
X92120000Y-73050000D02*
G01*
X94610000Y-73050000D01*
X94610000Y-122460000D01*
X92120000Y-122460000D01*
X92120000Y-73050000D01*
G37*
G36*
X167570000Y-73050000D02*
G01*
X182580000Y-73050000D01*
X182580000Y-122390000D01*
X167570000Y-122390000D01*
X167570000Y-73050000D01*
G37*
%TO.C,J1*%
G36*
X176700000Y-80080000D02*
G01*
X179700000Y-80080000D01*
X179700000Y-115640000D01*
X176700000Y-115640000D01*
X176700000Y-80080000D01*
G37*
D10*
X178950000Y-80080000D02*
G75*
G03*
X178950000Y-80080000I-750000J0D01*
G01*
X178950000Y-115640000D02*
G75*
G03*
X178950000Y-115640000I-750000J0D01*
G01*
%TD*%
D11*
%TO.C,H14*%
X173870000Y-117370000D03*
%TD*%
D12*
%TO.C,H6*%
X143200000Y-75360000D03*
%TD*%
D13*
%TO.C,SW11*%
X126710000Y-100190000D03*
X126710000Y-107390000D03*
X123710000Y-100190000D03*
X123710000Y-107390000D03*
%TD*%
D14*
%TO.C,H10*%
X155200000Y-109860000D03*
%TD*%
D13*
%TO.C,SW1*%
X102710000Y-76190000D03*
X102710000Y-83390000D03*
X99710000Y-76190000D03*
X99710000Y-83390000D03*
%TD*%
%TO.C,SW14*%
X138710000Y-88190000D03*
X138710000Y-95390000D03*
X135710000Y-88190000D03*
X135710000Y-95390000D03*
%TD*%
D12*
%TO.C,H8*%
X166200000Y-85860000D03*
%TD*%
D14*
%TO.C,H9*%
X107200000Y-85860000D03*
%TD*%
D13*
%TO.C,SW8*%
X114710000Y-112190000D03*
X114710000Y-119390000D03*
X111710000Y-112190000D03*
X111710000Y-119390000D03*
%TD*%
%TO.C,SW20*%
X162710000Y-88190000D03*
X162710000Y-95390000D03*
X159710000Y-88190000D03*
X159710000Y-95390000D03*
%TD*%
D12*
%TO.C,H7*%
X143200000Y-120360000D03*
%TD*%
D13*
%TO.C,SW19*%
X150710000Y-112190000D03*
X150710000Y-119390000D03*
X147710000Y-112190000D03*
X147710000Y-119390000D03*
%TD*%
D11*
%TO.C,H11*%
X173040000Y-78540000D03*
%TD*%
D13*
%TO.C,SW18*%
X150710000Y-88190000D03*
X150710000Y-95390000D03*
X147710000Y-88190000D03*
X147710000Y-95390000D03*
%TD*%
%TO.C,SW16*%
X138710000Y-112190000D03*
X138710000Y-119390000D03*
X135710000Y-112190000D03*
X135710000Y-119390000D03*
%TD*%
D12*
%TO.C,H9*%
X166200000Y-109860000D03*
%TD*%
D11*
%TO.C,H13*%
X174850000Y-111470000D03*
%TD*%
D13*
%TO.C,SW4*%
X102710000Y-112190000D03*
X102710000Y-119390000D03*
X99710000Y-112190000D03*
X99710000Y-119390000D03*
%TD*%
%TO.C,SW21*%
X150710000Y-100190000D03*
X150710000Y-107390000D03*
X147710000Y-100190000D03*
X147710000Y-107390000D03*
%TD*%
D12*
%TO.C,H5*%
X131200000Y-97860000D03*
%TD*%
%TO.C,H1*%
X96200000Y-85860000D03*
%TD*%
%TO.C,H4*%
X119200000Y-120360000D03*
%TD*%
D13*
%TO.C,SW10*%
X126710000Y-88190000D03*
X126710000Y-95390000D03*
X123710000Y-88190000D03*
X123710000Y-95390000D03*
%TD*%
%TO.C,SW22*%
X162710000Y-100190000D03*
X162710000Y-107390000D03*
X159710000Y-100190000D03*
X159710000Y-107390000D03*
%TD*%
%TO.C,SW17*%
X150710000Y-76190000D03*
X150710000Y-83390000D03*
X147710000Y-76190000D03*
X147710000Y-83390000D03*
%TD*%
%TO.C,SW23*%
X162710000Y-112190000D03*
X162710000Y-119390000D03*
X159710000Y-112190000D03*
X159710000Y-119390000D03*
%TD*%
%TO.C,SW7*%
X114710000Y-100190000D03*
X114710000Y-107390000D03*
X111710000Y-100190000D03*
X111710000Y-107390000D03*
%TD*%
%TO.C,SW3*%
X102710000Y-100190000D03*
X102710000Y-107390000D03*
X99710000Y-100190000D03*
X99710000Y-107390000D03*
%TD*%
%TO.C,SW6*%
X114710000Y-88190000D03*
X114710000Y-95390000D03*
X111710000Y-88190000D03*
X111710000Y-95390000D03*
%TD*%
D15*
%TO.C,H11*%
X177140000Y-75140000D03*
%TD*%
D13*
%TO.C,SW13*%
X138710000Y-76190000D03*
X138710000Y-83390000D03*
X135710000Y-76190000D03*
X135710000Y-83390000D03*
%TD*%
D12*
%TO.C,H3*%
X119200000Y-75360000D03*
%TD*%
D13*
%TO.C,SW15*%
X138710000Y-100190000D03*
X138710000Y-107390000D03*
X135710000Y-100190000D03*
X135710000Y-107390000D03*
%TD*%
D16*
%TO.C,J1*%
X178200000Y-80080000D03*
X178200000Y-82620000D03*
X178200000Y-85160000D03*
X178200000Y-87700000D03*
X178200000Y-90240000D03*
X178200000Y-92780000D03*
X178200000Y-95320000D03*
X178200000Y-97860000D03*
X178200000Y-100400000D03*
X178200000Y-102940000D03*
X178200000Y-105480000D03*
X178200000Y-108020000D03*
X178200000Y-110560000D03*
X178200000Y-113100000D03*
X178200000Y-115640000D03*
D17*
X178200000Y-80080000D03*
X178200000Y-82620000D03*
X178200000Y-85160000D03*
X178200000Y-87700000D03*
X178200000Y-90240000D03*
X178200000Y-92780000D03*
X178200000Y-95320000D03*
X178200000Y-97860000D03*
X178200000Y-100400000D03*
X178200000Y-102940000D03*
X178200000Y-105480000D03*
X178200000Y-108020000D03*
X178200000Y-110560000D03*
X178200000Y-113100000D03*
X178200000Y-115640000D03*
%TD*%
D13*
%TO.C,SW2*%
X102710000Y-88190000D03*
X102710000Y-95390000D03*
X99710000Y-88190000D03*
X99710000Y-95390000D03*
%TD*%
%TO.C,SW5*%
X114710000Y-76190000D03*
X114710000Y-83390000D03*
X111710000Y-76190000D03*
X111710000Y-83390000D03*
%TD*%
%TO.C,SW12*%
X126710000Y-112190000D03*
X126710000Y-119390000D03*
X123710000Y-112190000D03*
X123710000Y-119390000D03*
%TD*%
D11*
%TO.C,H12*%
X173910000Y-95620000D03*
%TD*%
D12*
%TO.C,H2*%
X96200000Y-109860000D03*
%TD*%
D13*
%TO.C,SW9*%
X126710000Y-76190000D03*
X126710000Y-83390000D03*
X123710000Y-76190000D03*
X123710000Y-83390000D03*
%TD*%
D18*
%TO.C,SW24*%
X163940000Y-82340000D03*
X158440000Y-79840000D03*
X163940000Y-77340000D03*
%TD*%
M02*
