M48
; DRILL file {KiCad 7.0.2} date Mon Jun  5 19:47:47 2023
; FORMAT={-:-/ absolute / inch / decimal}
; #@! TF.CreationDate,2023-06-05T19:47:47+02:00
; #@! TF.GenerationSoftware,Kicad,Pcbnew,7.0.2
; #@! TF.FileFunction,MixedPlating,1,2
FMAT,2
INCH
; #@! TA.AperFunction,NonPlated,NPTH,ComponentDrill
T1C0.0394
; #@! TA.AperFunction,NonPlated,NPTH,ComponentDrill
T2C0.0492
; #@! TA.AperFunction,NonPlated,NPTH,ComponentDrill
T3C0.0591
; #@! TA.AperFunction,NonPlated,NPTH,ComponentDrill
T4C0.0787
; #@! TA.AperFunction,NonPlated,NPTH,ComponentDrill
T5C0.0984
%
G90
G05
T1
X7.0157Y-3.1528
X7.0157Y-3.2528
X7.0157Y-3.3528
X7.0157Y-3.4528
X7.0157Y-3.5528
X7.0157Y-3.6528
X7.0157Y-3.7528
X7.0157Y-3.8528
X7.0157Y-3.9528
X7.0157Y-4.0528
X7.0157Y-4.1528
X7.0157Y-4.2528
X7.0157Y-4.3528
X7.0157Y-4.4528
X7.0157Y-4.5528
T2
X6.974Y-2.9583
T3
X6.8126Y-3.0921
X6.8453Y-4.6209
X6.8469Y-3.7646
X6.8839Y-4.3886
T4
X4.2205Y-3.3803
X6.1102Y-4.3252
T5
X3.7874Y-3.3803
X3.7874Y-4.3252
X4.6929Y-2.9669
X4.6929Y-4.7386
X5.1654Y-3.8528
X5.6378Y-2.9669
X5.6378Y-4.7386
X6.5433Y-3.3803
X6.5433Y-4.3252
T0
M30
